<mxfile host="app.diagrams.net" modified="2020-09-25T14:29:47.805Z" agent="5.0 (Macintosh; Intel Mac OS X 10_15_6) AppleWebKit/537.36 (KHTML, like Gecko) Chrome/85.0.4183.121 Safari/537.36" etag="jEURVap0khuFZJ0ItL_L" version="13.7.5" type="github">
  <diagram id="DALEJBTmsK7Otk4iofc6" name="Page-1">
    <mxGraphModel dx="1426" dy="1903" grid="1" gridSize="10" guides="1" tooltips="1" connect="1" arrows="1" fold="1" page="1" pageScale="1" pageWidth="850" pageHeight="1100" math="0" shadow="0">
      <root>
        <mxCell id="0" />
        <mxCell id="1" parent="0" />
        <mxCell id="0qvkcf1HlTovehnMV8BA-61" style="edgeStyle=orthogonalEdgeStyle;rounded=0;orthogonalLoop=1;jettySize=auto;html=1;entryX=0.5;entryY=1;entryDx=0;entryDy=0;" edge="1" parent="1" source="0qvkcf1HlTovehnMV8BA-2" target="0qvkcf1HlTovehnMV8BA-60">
          <mxGeometry relative="1" as="geometry" />
        </mxCell>
        <mxCell id="0qvkcf1HlTovehnMV8BA-2" value="&lt;span style=&quot;text-align: left&quot;&gt;&lt;b&gt;QMS Portal -&amp;nbsp;&lt;/b&gt;&lt;/span&gt;QMS Survey Management&lt;br&gt;&lt;span style=&quot;text-align: left&quot;&gt;url: https://qmsadminuat.fleetship.com/&lt;/span&gt;&lt;span style=&quot;text-align: left&quot;&gt;&lt;br&gt;&lt;/span&gt;" style="rounded=0;whiteSpace=wrap;html=1;" vertex="1" parent="1">
          <mxGeometry x="45" y="40" width="230" height="40" as="geometry" />
        </mxCell>
        <mxCell id="0qvkcf1HlTovehnMV8BA-3" value="&lt;b&gt;qms-backend-service&lt;br&gt;&lt;/b&gt;url:&amp;nbsp;https://qms-uat-api.fleetship.com" style="rounded=0;whiteSpace=wrap;html=1;" vertex="1" parent="1">
          <mxGeometry x="330" y="40" width="200" height="40" as="geometry" />
        </mxCell>
        <mxCell id="0qvkcf1HlTovehnMV8BA-6" value="https://paris-api-dev.fleetship.com/" style="rounded=0;whiteSpace=wrap;html=1;" vertex="1" parent="1">
          <mxGeometry x="320" y="345" width="210" height="30" as="geometry" />
        </mxCell>
        <mxCell id="0qvkcf1HlTovehnMV8BA-8" value="swagger&amp;nbsp; dev-paris2&lt;br&gt;https://paris2-dev.fleetship.com/swagger/#/" style="rounded=0;whiteSpace=wrap;html=1;" vertex="1" parent="1">
          <mxGeometry x="50" y="440" width="280" height="60" as="geometry" />
        </mxCell>
        <mxCell id="0qvkcf1HlTovehnMV8BA-10" value="&lt;b&gt;VIR xls&lt;/b&gt;&lt;font color=&quot;#1a1a1a&quot; face=&quot;opensans, arial, sans-serif&quot;&gt;&lt;br&gt;&lt;/font&gt;" style="rounded=0;whiteSpace=wrap;html=1;" vertex="1" parent="1">
          <mxGeometry x="710" y="170" width="120" height="60" as="geometry" />
        </mxCell>
        <mxCell id="0qvkcf1HlTovehnMV8BA-37" style="edgeStyle=orthogonalEdgeStyle;rounded=0;orthogonalLoop=1;jettySize=auto;html=1;" edge="1" parent="1" source="0qvkcf1HlTovehnMV8BA-12">
          <mxGeometry relative="1" as="geometry">
            <mxPoint x="50" y="370" as="targetPoint" />
          </mxGeometry>
        </mxCell>
        <mxCell id="0qvkcf1HlTovehnMV8BA-66" style="edgeStyle=orthogonalEdgeStyle;rounded=0;orthogonalLoop=1;jettySize=auto;html=1;" edge="1" parent="1" source="0qvkcf1HlTovehnMV8BA-12" target="0qvkcf1HlTovehnMV8BA-2">
          <mxGeometry relative="1" as="geometry" />
        </mxCell>
        <mxCell id="0qvkcf1HlTovehnMV8BA-12" value="&lt;span&gt;surveryjs-cms-server&lt;br&gt;Next.js&lt;br&gt;&lt;/span&gt;" style="rounded=0;whiteSpace=wrap;html=1;" vertex="1" parent="1">
          <mxGeometry x="70" y="120" width="180" height="40" as="geometry" />
        </mxCell>
        <mxCell id="0qvkcf1HlTovehnMV8BA-38" style="edgeStyle=orthogonalEdgeStyle;rounded=0;orthogonalLoop=1;jettySize=auto;html=1;" edge="1" parent="1" source="0qvkcf1HlTovehnMV8BA-22">
          <mxGeometry relative="1" as="geometry">
            <mxPoint x="50" y="370" as="targetPoint" />
          </mxGeometry>
        </mxCell>
        <mxCell id="0qvkcf1HlTovehnMV8BA-45" style="edgeStyle=orthogonalEdgeStyle;rounded=0;orthogonalLoop=1;jettySize=auto;html=1;" edge="1" parent="1" source="0qvkcf1HlTovehnMV8BA-22" target="0qvkcf1HlTovehnMV8BA-3">
          <mxGeometry relative="1" as="geometry" />
        </mxCell>
        <mxCell id="0qvkcf1HlTovehnMV8BA-22" value="&lt;span&gt;qms-backend-service&lt;br&gt;Serverless&lt;br&gt;&lt;/span&gt;" style="rounded=0;whiteSpace=wrap;html=1;" vertex="1" parent="1">
          <mxGeometry x="70" y="170" width="180" height="40" as="geometry" />
        </mxCell>
        <mxCell id="0qvkcf1HlTovehnMV8BA-39" style="edgeStyle=orthogonalEdgeStyle;rounded=0;orthogonalLoop=1;jettySize=auto;html=1;" edge="1" parent="1" source="0qvkcf1HlTovehnMV8BA-23">
          <mxGeometry relative="1" as="geometry">
            <mxPoint x="50" y="370" as="targetPoint" />
          </mxGeometry>
        </mxCell>
        <mxCell id="0qvkcf1HlTovehnMV8BA-50" style="edgeStyle=orthogonalEdgeStyle;rounded=0;orthogonalLoop=1;jettySize=auto;html=1;" edge="1" parent="1" source="0qvkcf1HlTovehnMV8BA-23" target="0qvkcf1HlTovehnMV8BA-47">
          <mxGeometry relative="1" as="geometry" />
        </mxCell>
        <mxCell id="0qvkcf1HlTovehnMV8BA-23" value="&lt;span&gt;paris2-web-vessel&lt;br&gt;single-spa-react&lt;br&gt;&lt;/span&gt;" style="rounded=0;whiteSpace=wrap;html=1;" vertex="1" parent="1">
          <mxGeometry x="70" y="220" width="180" height="40" as="geometry" />
        </mxCell>
        <mxCell id="0qvkcf1HlTovehnMV8BA-40" style="edgeStyle=orthogonalEdgeStyle;rounded=0;orthogonalLoop=1;jettySize=auto;html=1;" edge="1" parent="1" source="0qvkcf1HlTovehnMV8BA-25">
          <mxGeometry relative="1" as="geometry">
            <mxPoint x="50" y="370" as="targetPoint" />
          </mxGeometry>
        </mxCell>
        <mxCell id="0qvkcf1HlTovehnMV8BA-25" value="&lt;span&gt;quality-management-system-ios&lt;br&gt;&lt;/span&gt;" style="rounded=0;whiteSpace=wrap;html=1;" vertex="1" parent="1">
          <mxGeometry x="70" y="270" width="180" height="40" as="geometry" />
        </mxCell>
        <mxCell id="0qvkcf1HlTovehnMV8BA-26" value="&lt;div style=&quot;text-align: left&quot;&gt;&lt;span style=&quot;font-size: 13px&quot;&gt;&lt;font color=&quot;#0e101a&quot; face=&quot;arial&quot;&gt;QMS/Safeview&lt;/font&gt;&lt;/span&gt;&lt;/div&gt;&lt;div style=&quot;text-align: left&quot;&gt;&lt;font color=&quot;#0e101a&quot; face=&quot;arial&quot;&gt;&lt;span style=&quot;font-size: 13px&quot;&gt;https://qmsadminuat.fleetship.com/forms&lt;/span&gt;&lt;br&gt;&lt;/font&gt;&lt;/div&gt;" style="rounded=0;whiteSpace=wrap;html=1;" vertex="1" parent="1">
          <mxGeometry x="710" y="250" width="120" height="60" as="geometry" />
        </mxCell>
        <mxCell id="0qvkcf1HlTovehnMV8BA-28" value="Vessel" style="rounded=0;whiteSpace=wrap;html=1;" vertex="1" parent="1">
          <mxGeometry x="710" y="330" width="120" height="60" as="geometry" />
        </mxCell>
        <mxCell id="0qvkcf1HlTovehnMV8BA-30" value="&lt;strong style=&quot;text-align: left ; color: rgb(26 , 26 , 26) ; font-family: &amp;#34;opensans&amp;#34; , &amp;#34;arial&amp;#34; , sans-serif ; font-size: 14px ; background-color: rgb(242 , 242 , 242)&quot;&gt;PARIS (ERP?)&lt;/strong&gt;" style="rounded=0;whiteSpace=wrap;html=1;" vertex="1" parent="1">
          <mxGeometry x="710" y="100" width="120" height="60" as="geometry" />
        </mxCell>
        <mxCell id="0qvkcf1HlTovehnMV8BA-42" value="&lt;div&gt;&lt;span&gt;Archives/Folders&lt;/span&gt;&lt;span&gt;:&lt;/span&gt;&lt;/div&gt;" style="text;whiteSpace=wrap;html=1;align=left;" vertex="1" parent="1">
          <mxGeometry x="10" y="360" width="100" height="20" as="geometry" />
        </mxCell>
        <mxCell id="0qvkcf1HlTovehnMV8BA-49" value="" style="edgeStyle=orthogonalEdgeStyle;rounded=0;orthogonalLoop=1;jettySize=auto;html=1;" edge="1" parent="1" source="0qvkcf1HlTovehnMV8BA-43" target="0qvkcf1HlTovehnMV8BA-25">
          <mxGeometry relative="1" as="geometry" />
        </mxCell>
        <mxCell id="0qvkcf1HlTovehnMV8BA-43" value="iPad App" style="whiteSpace=wrap;html=1;aspect=fixed;" vertex="1" parent="1">
          <mxGeometry x="120" y="340" width="80" height="80" as="geometry" />
        </mxCell>
        <mxCell id="0qvkcf1HlTovehnMV8BA-47" value="paris 2.0" style="rounded=0;whiteSpace=wrap;html=1;" vertex="1" parent="1">
          <mxGeometry x="310" y="280" width="230" height="60" as="geometry" />
        </mxCell>
        <mxCell id="0qvkcf1HlTovehnMV8BA-56" value="&lt;span style=&quot;text-align: left&quot;&gt;&lt;br&gt;/inspections&lt;br&gt;&lt;/span&gt;" style="whiteSpace=wrap;html=1;" vertex="1" parent="1">
          <mxGeometry x="50" y="-80" width="120" height="30" as="geometry" />
        </mxCell>
        <mxCell id="0qvkcf1HlTovehnMV8BA-57" value="&lt;span style=&quot;color: rgb(14 , 16 , 26) ; font-family: &amp;#34;arial&amp;#34; ; font-size: 13px ; text-align: left&quot;&gt;(&lt;/span&gt;&lt;span style=&quot;color: rgb(14 , 16 , 26) ; font-family: &amp;#34;arial&amp;#34; ; font-size: 13px ; text-align: left&quot;&gt;Safeview)&lt;/span&gt;&lt;span style=&quot;color: rgb(14 , 16 , 26) ; font-family: &amp;#34;arial&amp;#34; ; font-size: 13px ; text-align: left&quot;&gt;&lt;br&gt;/forms&amp;nbsp;&lt;/span&gt;" style="rounded=0;whiteSpace=wrap;html=1;" vertex="1" parent="1">
          <mxGeometry x="180" y="-80" width="120" height="30" as="geometry" />
        </mxCell>
        <mxCell id="0qvkcf1HlTovehnMV8BA-64" style="edgeStyle=orthogonalEdgeStyle;rounded=0;orthogonalLoop=1;jettySize=auto;html=1;entryX=0.25;entryY=1;entryDx=0;entryDy=0;" edge="1" parent="1" source="0qvkcf1HlTovehnMV8BA-60" target="0qvkcf1HlTovehnMV8BA-57">
          <mxGeometry relative="1" as="geometry">
            <mxPoint x="220" y="-50" as="targetPoint" />
          </mxGeometry>
        </mxCell>
        <mxCell id="0qvkcf1HlTovehnMV8BA-65" style="edgeStyle=orthogonalEdgeStyle;rounded=0;orthogonalLoop=1;jettySize=auto;html=1;" edge="1" parent="1" source="0qvkcf1HlTovehnMV8BA-60" target="0qvkcf1HlTovehnMV8BA-56">
          <mxGeometry relative="1" as="geometry" />
        </mxCell>
        <mxCell id="0qvkcf1HlTovehnMV8BA-60" value="routes" style="rounded=0;whiteSpace=wrap;html=1;" vertex="1" parent="1">
          <mxGeometry x="100" y="-10" width="120" height="20" as="geometry" />
        </mxCell>
      </root>
    </mxGraphModel>
  </diagram>
</mxfile>
